<?xml version="1.0"?><svg width="420" height="475" xmlns="http://www.w3.org/2000/svg">
 <title>infinity</title>
 <metadata id="metadata7">image/svg+xml</metadata>

 <g>
  <title>Layer 1</title>
  <g externalResourcesRequired="false" id="g1348">
   <path transform="rotate(90 208.071 236.775)" fill="#000000" stroke-width="1px" d="m208.071106,217.892975c17.180176,-14.718109 33.708084,-27.209305 49.583954,-37.473587c15.875275,-10.457535 29.249908,-17.429321 40.123932,-20.915482c10.873322,-3.485657 22.725647,-5.228638 35.556885,-5.228882c26.966309,0.000244 48.713623,8.037201 65.242035,24.110931c16.745087,15.880508 25.117798,35.149811 25.118195,57.808105c-0.000397,15.493103 -3.697449,29.824097 -11.091125,42.99295c-7.394531,13.169159 -17.941956,23.1427 -31.642395,29.920746c-13.483765,6.77829 -29.033112,10.167358 -46.648041,10.167297c-22.835052,0.000061 -42.842682,-4.357361 -60.022675,-13.072205c-16.963257,-8.714691 -39.036819,-25.175934 -66.220764,-49.383789c-28.271774,24.982483 -50.780228,41.637421 -67.525528,49.964752c-16.745621,8.327576 -36.209442,12.491302 -58.39164,12.491241c-28.271648,0.000061 -50.345163,-7.843231 -66.220677,-23.529938c-15.658118,-15.686554 -23.487164,-35.536804 -23.487145,-59.551056c-0.000019,-22.464645 8.263952,-41.733978 24.791986,-57.808105c16.745392,-16.07373 38.60144,-24.110687 65.568272,-24.110931c13.048286,0.000244 25.009315,1.743225 35.883133,5.228882c10.873497,3.48616 24.139412,10.457947 39.797646,20.915482c15.875351,10.264282 32.40332,22.755478 49.583954,37.473587m21.20369,18.010574c23.05188,20.334641 41.972092,34.181534 56.760605,41.540482c15.005402,7.165619 29.902283,10.748383 44.690765,10.74826c18.484894,0.000122 32.946869,-4.841492 43.386017,-14.524628c10.438324,-9.876648 15.657654,-21.786865 15.658081,-35.730637c-0.000427,-15.299133 -5.219757,-27.887131 -15.658081,-37.764114c-10.22168,-10.070221 -23.813751,-15.105408 -40.776306,-15.105621c-9.569153,0.000214 -18.811829,1.5495 -27.727844,4.647873c-8.916748,2.905136 -19.572968,8.134048 -31.968628,15.686615c-12.396271,7.359344 -27.184509,17.526596 -44.364609,30.50177m-42.407364,0c-15.658279,-11.813187 -29.685287,-21.496292 -42.081116,-29.049316c-12.396149,-7.746262 -23.269821,-13.26561 -32.621017,-16.55806c-9.351509,-3.292053 -19.572746,-4.938171 -30.663765,-4.938416c-15.875656,0.000244 -29.032795,4.938614 -39.471451,14.815155c-10.438789,9.876984 -15.658155,22.464981 -15.658094,37.764114c-0.000061,10.65155 2.718355,19.656815 8.155264,27.015762c5.436737,7.359314 12.069691,13.072327 19.898815,17.13916c8.046432,4.067017 18.050205,6.100464 30.011364,6.100342c15.657974,0.000122 30.88105,-3.679474 45.669426,-11.038727c14.78801,-7.358978 33.708176,-21.109009 56.760574,-41.250015" id="text1326"/>
  </g>
 </g>
</svg>